<?xml version="1.0" encoding="utf-8"?>
<svg style="enable-background:new 0 0 880 360;" x="0px" y="0px" viewBox="0 0 880 360" version="1.1" xmlns="http://www.w3.org/2000/svg" xmlns:xlink="http://www.w3.org/1999/xlink" xml:space="preserve">
  <polyline points="680,80 680,120 720,120 720,280 760,280 760,120 800,120 800,80"/>
  <rect x="600" y="160" width="40" height="120"/>
  <rect x="600" y="80" width="40" height="40"/>
  <rect x="520" y="240" width="40" height="40"/>
  <path d="M500,80c-11.05,0-20,8.95-20,20v60h-40V80h-40v80v20c0,11.05,8.95,20,20,20h20v80h40v-80h20c11.05,0,20-8.95,20-20v-60h40 V80H500z"/>
  <path d="M360,240V100c0-11.05-8.95-20-20-20h-80c-11.05,0-20,8.95-20,20v180h40v-80h40v60c0,11.05,8.95,20,20,20h60v-40H360z M320,160h-40v-40h40V160z"/>
  <path d="M180,280c11.05,0,20-8.95,20-20v-80c0-11.05-8.95-20-20-20h-60v-40h80V80H80v120h80v40H80v40"/>
  <path d="M860,0H20C8.95,0,0,8.95,0,20v320c0,11.05,8.95,20,20,20h840c11.05,0,20-8.95,20-20V20C880,8.95,871.05,0,860,0z M840,320 H40V40h800V320z"/>
</svg>
